<svg xmlns="http://www.w3.org/2000/svg" width="906" height="877" viewBox="0 0 906 877" version="1.1"><path d="M 403.500 7.075 C 344.209 11.791, 286.003 28.063, 237 53.624 C 218.174 63.443, 206 71.128, 206 73.193 C 206 74.328, 202.160 77.511, 195.250 82.105 C 155.697 108.397, 120.065 141.132, 92.500 176.500 C 63.017 214.329, 37.344 264.067, 24.449 308.341 C 20.720 321.142, 20.479 322.440, 22 321.500 C 23.343 320.670, 23.348 320.631, 20.546 332.822 C 6.648 393.307, 4.415 450.940, 14.011 501.500 C 16.567 514.968, 21.917 535.589, 25.815 547 C 32.777 567.379, 42.851 588.986, 39.163 575.627 C 38.233 572.259, 38.486 571, 40.095 571 C 40.514 571, 41.820 573.587, 42.997 576.750 C 45.208 582.688, 52.618 598.859, 63.517 621.532 C 69.437 633.850, 77.769 645.511, 79.465 643.853 C 79.829 643.498, 78.338 639.650, 76.152 635.303 C 57.471 598.149, 41.863 548.303, 36.132 507.500 C 32.337 480.481, 32.633 467.710, 36.533 490.188 C 38.085 499.133, 40.256 506, 41.531 506 C 41.880 506, 41.849 486.988, 41.463 463.750 C 40.723 419.234, 41.217 409.639, 45.009 394.946 C 46.485 389.228, 46.823 388.544, 46.467 392 C 43.764 418.218, 43.383 435.703, 45.022 458.435 C 46.702 481.733, 52.292 512.995, 56.835 524.494 C 58.361 528.358, 58.438 528.407, 59.182 525.994 C 59.639 524.514, 59.721 525.511, 59.385 528.448 C 58.872 532.922, 58.973 533.267, 60.433 532.055 C 61.322 531.318, 62.186 530.892, 62.355 531.107 C 62.524 531.323, 67.043 541.770, 72.398 554.323 C 85.898 585.972, 89.921 594.416, 98.011 608.088 C 106.518 622.464, 116.467 635.798, 129.656 650.500 C 135.083 656.550, 140.382 662.850, 141.432 664.500 C 142.482 666.150, 145.065 669.554, 147.171 672.064 C 150.145 675.610, 151 677.482, 151 680.449 C 151 688.803, 174.012 721.858, 193.285 741.188 C 211.295 759.253, 228.977 776.219, 236 782.173 C 272.047 812.734, 327.003 839.746, 382 853.934 C 396.879 857.772, 406.647 859.511, 427.500 862.035 C 436.850 863.167, 449.900 865.027, 456.500 866.168 C 466.711 867.934, 470.960 868.154, 485 867.645 C 510.269 866.728, 549.085 860.714, 579.515 853.002 C 670.039 830.060, 753.861 773.625, 812.239 696.316 C 895.935 585.480, 919.599 432.595, 874.051 296.974 C 868.097 279.246, 857 252.432, 855.904 253.124 C 854.385 254.082, 851.313 249.600, 845.401 237.803 C 800.090 147.380, 722.779 75.387, 632.972 39.989 C 628.656 38.288, 628.160 38.253, 628.712 39.693 C 629.456 41.631, 631.092 42.073, 608 34.102 C 583.832 25.759, 564.186 20.575, 539.301 15.975 C 524.923 13.317, 485.030 8.239, 469 7.026 C 453.644 5.864, 418.392 5.891, 403.500 7.075 M 470 107.869 C 470 108.757, 477.067 110.267, 477.798 109.536 C 478.019 109.314, 477.904 108.653, 477.541 108.067 C 476.755 106.795, 470 106.618, 470 107.869 M 450.805 108.668 C 449.873 108.920, 449.338 109.718, 449.617 110.443 C 449.930 111.259, 448.899 112.188, 446.912 112.881 C 442.119 114.552, 440.681 114.327, 441.290 112 C 441.652 110.615, 441.303 109.969, 440.156 109.898 C 439.245 109.842, 436.097 109.611, 433.160 109.385 C 428.465 109.024, 427.756 109.218, 427.293 110.987 C 427.004 112.094, 426.482 113.005, 426.133 113.010 C 418.180 113.140, 400.975 115.457, 399.154 116.643 C 396.990 118.053, 396.658 118.010, 394.865 116.086 C 393.797 114.939, 391.927 114.032, 390.711 114.070 C 388.593 114.138, 388.584 114.175, 390.500 114.967 C 393.985 116.407, 384.149 120.012, 373.689 121.128 C 362.024 122.373, 338.765 130.001, 317.500 139.555 C 314.200 141.038, 310.600 142.362, 309.500 142.498 C 308.400 142.634, 307.163 142.802, 306.750 142.872 C 306.337 142.943, 306 143.639, 306 144.419 C 306 145.199, 305.212 147.248, 304.250 148.971 C 302.607 151.914, 302.195 152.086, 297.500 151.802 C 292.661 151.510, 292.510 151.582, 292.796 154.056 C 293.098 156.663, 291.426 158.055, 286.250 159.505 C 282.977 160.421, 283.452 158.618, 287.750 153.814 C 291.851 149.231, 291.494 149.352, 282.187 155.696 C 278.715 158.063, 275.024 160, 273.986 160 C 271.881 160, 259.960 170.070, 260.668 171.250 C 260.916 171.662, 262.329 172.014, 263.809 172.032 C 266.382 172.062, 266.415 172.128, 264.574 173.521 C 263.515 174.322, 260.473 175.266, 257.815 175.619 C 255.127 175.975, 250.877 177.578, 248.241 179.228 L 243.500 182.196 247.750 177.810 C 252.925 172.470, 253.470 169.873, 248.795 172.833 C 243.448 176.219, 232.277 187.829, 222.175 200.500 C 216.914 207.100, 209.659 216.081, 206.054 220.458 L 199.500 228.415 199 222.198 L 198.500 215.980 191 225.109 C 149.445 275.688, 125.641 336.821, 116.487 416.474 C 115.847 422.036, 115.698 422.311, 114.314 420.474 C 113.190 418.981, 112.934 416.555, 113.262 410.517 C 113.596 404.385, 113.442 402.980, 112.598 404.458 C 111.994 405.517, 110.596 407.333, 109.492 408.495 C 107.562 410.524, 107.485 411.913, 107.508 444.053 C 107.525 468.344, 107.892 478.939, 108.850 482.757 C 110.099 487.735, 112 489.083, 112 484.990 C 112 483.950, 112.491 480.809, 113.091 478.011 C 114.007 473.740, 114.479 473.017, 116.031 473.510 C 118.830 474.398, 119.988 468.643, 119.994 453.817 C 119.999 442.293, 120.171 441.080, 121.877 440.539 C 123.142 440.138, 123.968 438.604, 124.411 435.832 C 125.217 430.788, 132.033 415.996, 132.715 417.810 C 132.985 418.531, 132.710 421.093, 132.103 423.503 C 131.497 425.914, 131 429.261, 131 430.943 C 131 432.994, 130.506 434, 129.500 434 C 128.330 434, 128 435.347, 128 440.126 C 128 443.496, 127.277 453.733, 126.394 462.876 C 124.902 478.315, 124.948 497.281, 126.480 498.813 C 127.796 500.130, 128.967 496.295, 128.775 491.296 C 128.587 486.428, 129.298 483.965, 130.534 485.201 C 131.816 486.482, 133.122 499.314, 132.907 508.500 C 132.735 515.819, 133.249 521.047, 134.823 528 C 136.221 534.176, 136.978 540.926, 136.987 547.290 C 136.998 555.264, 137.392 557.848, 139.114 561.223 C 142.492 567.844, 145.749 577.064, 152.637 599.500 C 156.182 611.050, 159.901 621.634, 160.901 623.019 C 161.901 624.405, 163.045 626.566, 163.444 627.822 C 164.030 629.670, 164.442 629.878, 165.603 628.915 C 166.726 627.982, 167.413 628.046, 168.769 629.210 C 169.721 630.027, 171.288 630.975, 172.250 631.317 C 173.576 631.787, 174 633.061, 174 636.576 C 174 640.215, 173.688 641.094, 172.551 640.658 C 171.668 640.319, 170.855 640.882, 170.468 642.100 C 169.531 645.052, 175.966 653.004, 187.394 663.019 C 192.717 667.683, 197.452 671.632, 197.916 671.793 C 198.380 671.955, 198.996 670.605, 199.284 668.793 C 199.698 666.194, 198.855 663.708, 195.287 657 C 192.800 652.325, 188.793 645.719, 186.383 642.321 C 183.972 638.922, 182 635.213, 182 634.078 C 182 632.944, 180.024 628.074, 177.608 623.258 C 172.695 613.461, 171.400 608.895, 172.817 606.363 C 173.595 604.972, 174.553 606.277, 177.904 613.298 C 180.174 618.055, 182.961 622.444, 184.098 623.053 C 186.004 624.073, 186.034 624.255, 184.480 625.391 C 182.958 626.504, 183.284 627.270, 187.850 633.302 C 192.738 639.760, 194.973 645.617, 193.474 648.042 C 192.966 648.864, 193.384 649.013, 194.875 648.540 C 196.776 647.936, 197 648.249, 197 651.498 C 197 656.157, 198.539 659, 201.061 659 C 203.956 659, 212 667.389, 212 670.407 C 212 672.321, 212.588 672.937, 214.646 673.184 C 216.802 673.441, 217.525 674.293, 218.550 677.782 C 220.094 683.038, 221.084 684.260, 227.842 689.252 C 232.637 692.795, 234.040 694.784, 236.338 701.293 C 236.828 702.684, 237.366 702.860, 238.735 702.077 C 243.421 699.396, 243.398 699.502, 240.426 694.040 C 238.873 691.187, 236.342 687.955, 234.801 686.858 C 231.371 684.416, 231.164 682.752, 234.391 683.562 C 238.664 684.634, 238.133 682.232, 233.391 679.031 C 230.844 677.312, 228.534 676.133, 228.257 676.410 C 227.360 677.307, 228.953 680.147, 229.993 679.504 C 230.547 679.162, 231 679.359, 231 679.941 C 231 681.733, 229.492 681.126, 226.799 678.250 C 222.069 673.197, 222.435 667.426, 227.218 671.652 L 229.310 673.500 227.498 670.686 C 226.501 669.138, 222.406 665.192, 218.397 661.915 C 209.457 654.611, 206.880 651.112, 206.237 645.409 L 205.740 641 209.481 641 C 213.199 641, 213.219 641.021, 212.580 644.423 C 212.033 647.341, 212.254 647.946, 214.080 648.525 C 215.257 648.899, 217.859 650.654, 219.861 652.426 C 221.862 654.197, 224.595 656.389, 225.934 657.296 C 228.735 659.195, 229.501 662.998, 227.083 663.004 C 226.149 663.006, 226.730 663.762, 228.500 664.848 C 230.150 665.860, 235.479 671.031, 240.341 676.338 C 246.416 682.967, 250.587 686.608, 253.670 687.972 C 256.634 689.283, 261.623 693.529, 268.365 700.478 C 273.979 706.265, 279.171 711, 279.903 711 C 280.712 711, 281.041 711.736, 280.743 712.876 C 280.354 714.363, 281.474 715.337, 286.132 717.563 C 289.899 719.363, 291.572 720.647, 290.785 721.133 C 289.315 722.041, 288.771 721.545, 298 727.706 C 307.767 734.226, 312.563 736.604, 317.660 737.453 C 320.849 737.984, 321.953 738.675, 322.390 740.416 C 322.703 741.665, 324.162 743.890, 325.633 745.360 C 328.115 747.842, 330.308 748.671, 343.357 752.059 C 346.339 752.833, 349.428 754.552, 351.357 756.512 C 353.716 758.907, 355.722 759.865, 359.396 760.353 C 362.292 760.737, 364.801 760.580, 365.536 759.970 C 367.288 758.516, 374 762.584, 374 765.099 C 374 766.722, 374.768 767.004, 379.250 767.029 C 382.137 767.045, 390.800 768.172, 398.500 769.532 C 428.548 774.842, 438.399 776.057, 449.500 775.821 C 458.426 775.632, 461.206 775.930, 464.242 777.404 C 467.761 779.112, 471 779.047, 471 777.269 C 471 776.832, 468.042 775.628, 464.426 774.592 C 460.810 773.557, 458.344 772.405, 458.946 772.033 C 459.548 771.661, 463.519 771.453, 467.770 771.570 C 473.445 771.727, 475.575 772.153, 475.782 773.175 C 476.011 774.308, 477.502 774.412, 483.782 773.733 C 488.027 773.275, 492.948 772.448, 494.717 771.897 C 496.912 771.213, 498.559 771.229, 499.901 771.947 C 502.454 773.313, 512.833 773.303, 516.771 771.930 C 518.459 771.342, 520.110 770.156, 520.440 769.296 C 520.943 767.984, 520.379 767.820, 516.946 768.280 C 513.585 768.731, 512.954 768.562, 513.426 767.333 C 513.742 766.510, 514 765.423, 514 764.918 C 514 763.682, 517.670 763.753, 520.066 765.035 C 521.130 765.605, 522 766.673, 522 767.410 C 522 769.721, 527.892 770.230, 530.540 768.147 L 532.882 766.305 527.795 766.794 C 520.395 767.505, 522.455 765.523, 531.261 763.458 C 535.242 762.524, 542.100 761.639, 546.500 761.490 C 552.437 761.289, 555.918 760.581, 560 758.744 C 569.378 754.522, 584.729 750.761, 591.868 750.935 C 595.724 751.029, 601.067 748.073, 603.358 744.577 C 604.420 742.956, 606.299 741.960, 609.211 741.475 C 611.570 741.082, 615.230 739.884, 617.344 738.812 C 619.458 737.740, 628.414 733.755, 637.246 729.955 C 649.400 724.726, 656.671 720.791, 667.146 713.773 C 675.630 708.089, 680.990 703.857, 680.994 702.839 C 681.002 700.521, 686.100 696.479, 694.080 692.460 C 701.491 688.728, 704 686.026, 704 681.777 C 704 680.250, 704.563 678.956, 705.250 678.901 C 705.938 678.847, 707.482 678.735, 708.683 678.651 C 710.165 678.549, 712.250 676.451, 715.183 672.110 C 717.557 668.596, 720.737 663.893, 722.250 661.659 C 723.763 659.426, 725.006 656.451, 725.014 655.049 C 725.026 653.035, 726.066 651.928, 729.972 649.774 C 735.974 646.464, 740.324 641.086, 749.500 625.630 C 753.350 619.145, 758.525 611.738, 761 609.169 C 763.550 606.523, 766.651 601.792, 768.157 598.250 C 769.618 594.813, 770.649 592, 770.449 592 C 770.248 592, 768.832 594.138, 767.302 596.750 C 763.202 603.749, 751.523 619.185, 741.340 631.066 C 736.421 636.804, 729.540 645.100, 726.049 649.500 L 719.703 657.500 714.851 657.158 C 711.803 656.943, 710 657.222, 710 657.908 C 710 658.509, 711.013 659.015, 712.250 659.033 C 714.140 659.061, 713.456 660.062, 707.985 665.283 C 704.402 668.702, 697.202 674.409, 691.985 677.964 C 686.768 681.519, 679.480 687.256, 675.790 690.714 C 672.099 694.171, 668.190 697, 667.103 697 C 666.016 697, 662.208 698.998, 658.642 701.440 C 649.275 707.853, 644.319 710.161, 640.676 709.808 C 637.652 709.515, 637.873 709.291, 645.312 705.126 C 649.609 702.720, 654.074 699.466, 655.235 697.896 C 656.897 695.648, 657.638 695.285, 658.724 696.186 C 659.816 697.092, 661.185 696.285, 665.301 692.311 C 672.327 685.527, 674.830 684, 678.923 684 C 681.627 684, 682.133 683.733, 681.200 682.800 C 679.327 680.927, 679.774 680, 682.550 680 C 685.663 680, 691.265 677.238, 690.538 676.062 C 689.604 674.550, 696.398 665.679, 699.727 664.065 C 701.914 663.004, 702.962 661.781, 702.977 660.269 C 702.994 658.603, 704.201 657.465, 707.750 655.769 C 711.157 654.142, 713.407 652.086, 715.706 648.500 C 720.998 640.248, 723.197 637.816, 726.681 636.360 C 730.426 634.795, 730.738 633.517, 728.186 630.201 L 726.417 627.901 721.712 631.494 C 719.124 633.470, 716.319 636.417, 715.478 638.043 C 713.558 641.755, 710.496 642.144, 711.395 638.561 C 712.077 635.844, 710.723 634.339, 709.325 636.261 C 708.830 636.942, 707.633 639.245, 706.667 641.378 L 704.910 645.257 707.205 644.675 C 709.118 644.189, 708.878 644.667, 705.765 647.546 C 700.321 652.579, 697.805 651.601, 701.720 645.973 L 703.439 643.500 700.970 645.083 C 699.611 645.953, 695.923 650.413, 692.774 654.993 C 686.035 664.793, 683.461 667.690, 679.800 669.595 C 675.430 671.868, 673.246 671.398, 672.505 668.024 C 671.654 664.148, 672.643 662.693, 675.621 663.441 C 677.571 663.930, 678.251 663.522, 679.232 661.272 C 679.897 659.747, 681.917 656.312, 683.721 653.638 C 685.524 650.964, 687 648.151, 687 647.388 C 687 645.645, 691.983 645.509, 692.044 647.250 C 692.069 647.938, 692.924 646.919, 693.946 644.988 C 694.968 643.056, 699.444 637.431, 703.893 632.488 C 709.445 626.319, 712.626 621.803, 714.037 618.090 C 716.513 611.571, 718.607 608.474, 726.178 600.128 C 729.358 596.623, 732.509 592.234, 733.182 590.375 C 734.110 587.806, 734.836 587.131, 736.202 587.564 C 737.574 588, 738 587.594, 738 585.851 C 738 582.197, 741.184 574.680, 742.103 576.166 C 742.536 576.868, 743.028 577.230, 743.196 576.971 C 743.363 576.712, 745.896 571.764, 748.824 565.976 C 752.911 557.898, 754.276 554.044, 754.698 549.398 C 755.197 543.891, 755.501 543.249, 758.074 542.278 C 761.927 540.824, 764.782 535.745, 765.502 529.066 C 766.708 517.878, 767.236 515.873, 769.771 512.860 C 772.704 509.375, 773.719 501.366, 771.597 498.463 C 770.591 497.088, 770.646 496.112, 771.884 493.381 C 772.727 491.521, 774.110 490, 774.958 490.001 C 776.282 490.001, 776.506 487.707, 776.542 473.751 C 776.564 464.813, 776.782 448.275, 777.024 437 C 777.357 421.555, 777.118 415.021, 776.054 410.500 C 774.484 403.826, 774.553 401.747, 776.475 397.809 C 777.625 395.452, 777.562 394.913, 775.966 393.469 C 774.847 392.456, 773.365 392.067, 772.126 392.460 C 770.290 393.043, 770.157 392.760, 770.639 389.300 C 770.930 387.210, 771.548 384.290, 772.011 382.811 C 772.627 380.844, 772.449 379.788, 771.349 378.874 C 769.378 377.239, 765.001 368.565, 764.995 366.283 C 764.992 365.302, 765.727 362.443, 766.628 359.929 C 768.265 355.362, 768.264 355.355, 765.633 352.724 C 764.185 351.276, 763 349.496, 763 348.768 C 763 348.040, 762.242 346.363, 761.315 345.040 C 759.008 341.745, 758.793 338.242, 760.819 336.953 C 762.211 336.067, 762.254 335.783, 761.069 335.298 C 757.617 333.886, 755.110 329.447, 752.566 320.244 C 751.085 314.885, 748.758 308.587, 747.394 306.250 C 746.031 303.913, 745.403 302, 745.999 302 C 746.595 302, 747.911 303.913, 748.925 306.250 C 750.765 310.493, 750.769 310.496, 751.490 307.761 C 752.008 305.793, 751.618 304.018, 750.104 301.451 C 748.945 299.487, 748.357 298.103, 748.798 298.375 C 749.239 298.648, 749.600 297.311, 749.600 295.404 C 749.600 292.646, 749.141 291.823, 747.357 291.375 C 746.123 291.065, 744.605 291.126, 743.983 291.510 C 743.232 291.975, 743.266 291.547, 744.084 290.237 C 745.398 288.133, 744.755 285, 743.010 285 C 742.431 285, 741.439 286.138, 740.805 287.528 C 739.969 289.363, 739.430 289.706, 738.842 288.778 C 737.548 286.739, 737.872 283.351, 739.489 282.009 C 741.629 280.233, 740.405 279, 736.500 279 C 732.777 279, 731.671 278.022, 732.614 275.565 C 733.123 274.236, 733.505 274.175, 734.761 275.217 C 736.085 276.315, 736.185 276.152, 735.511 273.992 C 733.831 268.611, 733.020 267.092, 729.963 263.611 C 728.220 261.625, 727.345 260, 728.019 260 C 728.954 260, 728.970 259.669, 728.087 258.605 C 727.451 257.838, 727.027 256.826, 727.145 256.355 C 727.419 255.269, 724.022 249.238, 721.835 246.929 C 720.920 245.962, 718.633 242.770, 716.754 239.835 C 712.802 233.663, 705.729 225.029, 695.244 213.577 C 691.177 209.134, 685.571 202.463, 682.787 198.750 C 679.297 194.096, 677.060 192, 675.585 192 C 672.561 192, 669.519 189.615, 665.975 184.464 C 663.376 180.687, 652.547 172, 650.437 172 C 650.067 172, 648.307 170.720, 646.526 169.157 C 642.287 165.435, 614.853 151.228, 599 144.544 C 581.654 137.232, 559.658 130.037, 539 124.920 C 529.375 122.536, 521.288 120.429, 521.029 120.238 C 520.770 120.047, 521.220 119.441, 522.029 118.891 C 523.505 117.887, 533.790 118.312, 537.512 119.531 C 538.862 119.973, 538.453 119.270, 536.241 117.341 C 534.449 115.778, 532.986 113.938, 532.991 113.250 C 533.005 111.363, 525.966 111.664, 524.543 113.611 C 523.464 115.086, 523.221 115.078, 521.655 113.512 C 519.594 111.451, 511.268 110.007, 512.448 111.915 C 512.926 112.690, 512.435 113.335, 511.101 113.684 C 509.945 113.986, 509 114.631, 509 115.117 C 509 116.830, 506.025 115.957, 498.378 112 C 494.126 109.800, 490.041 108, 489.299 108 C 488.557 108, 487.518 109.137, 486.990 110.526 C 485.576 114.245, 483.873 114.454, 474.040 112.117 C 463.544 109.623, 462.003 109.546, 459.479 111.392 C 457.791 112.626, 457.456 112.542, 456.513 110.650 C 455.417 108.452, 453.751 107.874, 450.805 108.668 M 498 110.551 C 498 111.314, 504.594 114, 506.468 114 C 509.375 114, 507.989 112.313, 504.134 111.158 C 499.901 109.890, 498 109.702, 498 110.551 M 291.082 146.410 C 288.665 147.749, 288.665 147.750, 290.771 148.878 C 292.915 150.025, 293.213 149.846, 294.314 146.750 C 295.052 144.677, 294.345 144.603, 291.082 146.410 M 530 237.911 C 530 241.310, 484.427 495.362, 482.512 502.638 C 481.189 507.664, 478.963 514.592, 477.564 518.034 C 468.296 540.843, 450.475 552.141, 423.500 552.309 C 402.184 552.441, 388.507 545.339, 382.801 531.174 C 380.757 526.100, 380.530 523.967, 380.649 511 C 380.739 501.200, 381.466 492.659, 382.891 484.651 C 384.051 478.133, 385 472.171, 385 471.401 C 385 470.219, 377.380 470, 336.250 470.002 L 287.500 470.004 283.151 495.087 C 277.415 528.175, 276.391 539.387, 277.864 552.973 C 280.640 578.568, 289.154 595.731, 306.134 609.965 C 328.706 628.886, 367.628 638.221, 417.500 636.675 C 504.119 633.989, 553.412 599.574, 574.961 526.738 C 579.348 511.909, 579.749 509.767, 604.460 369 C 616.866 298.325, 627.196 239.713, 627.415 238.750 C 627.790 237.102, 624.969 237, 578.906 237 C 550.169 237, 530 237.376, 530 237.911 M 175.239 641.810 C 173.835 642.725, 176.612 645.775, 180.836 647.956 C 183.987 649.583, 184.249 649.012, 182.220 644.946 C 180.501 641.502, 177.667 640.228, 175.239 641.810 M 202.571 673.500 C 203.926 679.132, 205.123 681.500, 208.258 684.750 C 211.874 688.499, 210.514 689.132, 206.327 685.649 C 202.835 682.744, 198.994 680.672, 198.331 681.336 C 196.793 682.873, 215.428 698.505, 226.500 704.965 C 230.060 707.042, 229.661 706.429, 222.879 699.400 C 215.478 691.729, 215.285 691.402, 216.189 688.128 C 216.701 686.273, 216.838 684.023, 216.493 683.128 C 215.925 681.654, 215.772 681.666, 214.883 683.250 C 214.343 684.212, 213.485 685, 212.976 685 C 212.468 685, 209.757 681.737, 206.951 677.750 C 203.063 672.224, 202.022 671.213, 202.571 673.500 M 248.721 731.960 C 248.196 733.965, 246.780 733.874, 240.500 731.430 C 239.333 730.976, 240.282 732.401, 242.781 734.855 C 245.135 737.166, 247.329 740.395, 247.656 742.029 C 248.284 745.168, 250.626 745.974, 252.800 743.800 C 254.101 742.499, 255.629 743.471, 256.179 745.948 C 256.355 746.745, 258.975 749.061, 262 751.095 C 265.025 753.129, 270.200 756.861, 273.500 759.386 C 276.800 761.912, 280.035 763.984, 280.689 763.989 C 281.343 763.995, 283.986 765.824, 286.562 768.054 C 289.268 770.396, 297.720 775.212, 306.575 779.457 C 315.006 783.500, 323.838 788.154, 326.202 789.799 C 328.566 791.445, 332.425 793.071, 334.777 793.412 C 337.130 793.753, 342.842 795.600, 347.471 797.516 C 356.669 801.324, 365 802.267, 365 799.500 C 365 798.383, 363.820 798, 360.383 798 C 356.072 798, 355.797 797.844, 356.218 795.642 C 356.628 793.493, 355.640 792.810, 345.084 787.956 C 328.256 780.217, 292.478 762.369, 285.500 758.231 C 278.521 754.093, 268.654 746.446, 257.868 736.815 C 253.670 733.067, 250.010 730, 249.734 730 C 249.459 730, 249.003 730.882, 248.721 731.960" stroke="none" fill="#04f33b" fill-rule="evenodd"/><path d="M 419.500 4.475 C 418.950 4.724, 411.525 5.409, 403 5.999 C 384.093 7.307, 373.788 8.595, 355 12.002 C 344.993 13.817, 332.883 16.454, 327.500 17.991 C 325.300 18.619, 321.925 19.523, 320 20 C 310.673 22.310, 299.229 25.803, 296.764 27.092 C 295.809 27.592, 294.211 28, 293.214 28 C 292.216 28, 290.973 28.358, 290.450 28.796 C 289.928 29.234, 287.700 30.163, 285.500 30.862 C 283.300 31.561, 280.488 32.552, 279.250 33.066 C 278.012 33.580, 275.988 34.390, 274.750 34.866 C 266.906 37.886, 254.186 43.559, 241 49.918 C 235.139 52.744, 221.662 60.184, 218.846 62.149 C 217.386 63.167, 215.918 64, 215.584 64 C 213.713 64, 204.883 70.833, 204.402 72.654 C 204.054 73.965, 199.857 77.437, 193.666 81.535 C 184.882 87.349, 168.896 98.943, 162.509 104.132 C 133.352 127.820, 108.645 152.939, 88.622 179.251 C 81.971 187.991, 66 211.511, 66 212.566 C 66 212.910, 65.116 214.433, 64.035 215.951 C 57.558 225.048, 40.728 259.258, 33.512 278 C 31.500 283.225, 29.436 288.281, 28.927 289.236 C 28.417 290.191, 28 291.852, 28 292.927 C 28 294.002, 27.550 295.160, 27 295.500 C 26.450 295.840, 26 296.998, 26 298.073 C 26 299.148, 25.594 300.809, 25.097 301.764 C 24.601 302.719, 23.649 305.525, 22.981 308 C 22.314 310.475, 21.359 313.634, 20.858 315.020 C 20.358 316.406, 19.782 320.906, 19.579 325.020 C 19.376 329.134, 18.692 334.750, 18.059 337.500 C 16.970 342.233, 16.229 345.852, 13.964 357.500 C 8.126 387.522, 5.111 428.145, 6.853 453.311 C 8.390 475.498, 9.840 487.464, 13.120 505 C 14.090 510.183, 14.552 512.208, 17 522 C 19.595 532.381, 24.834 549.486, 26.953 554.500 C 27.418 555.600, 28.369 558.075, 29.066 560 C 30.951 565.204, 37.836 580, 38.373 580 C 38.629 580, 36.433 574.183, 33.493 567.073 C 4.736 497.532, 0.463 420.223, 20.546 332.822 C 23.348 320.631, 23.343 320.670, 22 321.500 C 20.479 322.440, 20.720 321.142, 24.449 308.341 C 37.344 264.067, 63.017 214.329, 92.500 176.500 C 120.065 141.132, 155.697 108.397, 195.250 82.105 C 202.160 77.511, 206 74.328, 206 73.193 C 206 69.986, 237.426 52.293, 261.500 41.946 C 317.081 18.058, 375.968 5.994, 436.950 6.002 C 459.861 6.005, 475.789 7.177, 505.801 11.069 C 549.007 16.670, 573.483 22.187, 608 34.102 C 631.092 42.073, 629.456 41.631, 628.712 39.693 C 628.160 38.253, 628.656 38.288, 632.972 39.989 C 657.793 49.773, 681.870 62.552, 706.500 79.015 C 764.355 117.686, 813.180 173.502, 845.401 237.803 C 851.625 250.223, 853.412 252.875, 855.500 252.789 C 857.084 252.724, 867.610 277.793, 874.051 296.974 C 899.462 372.635, 903.681 453.508, 886.417 534 C 874.093 591.458, 847.531 649.580, 812.239 696.316 C 753.861 773.625, 670.039 830.060, 579.515 853.002 C 549.085 860.714, 510.269 866.728, 485 867.645 C 470.960 868.154, 466.711 867.934, 456.500 866.168 C 449.900 865.027, 436.850 863.167, 427.500 862.035 C 406.647 859.511, 396.879 857.772, 382 853.934 C 327.003 839.746, 272.047 812.734, 236 782.173 C 228.977 776.219, 211.295 759.253, 193.285 741.188 C 174.012 721.858, 151 688.803, 151 680.449 C 151 677.482, 150.145 675.610, 147.171 672.064 C 145.065 669.554, 142.482 666.150, 141.432 664.500 C 140.382 662.850, 135.083 656.550, 129.656 650.500 C 116.467 635.798, 106.518 622.464, 98.011 608.088 C 89.921 594.416, 85.898 585.972, 72.398 554.323 C 67.043 541.770, 62.524 531.323, 62.355 531.107 C 62.186 530.892, 61.322 531.318, 60.433 532.055 C 58.973 533.267, 58.872 532.922, 59.385 528.448 C 59.721 525.511, 59.639 524.514, 59.182 525.994 C 58.438 528.407, 58.361 528.358, 56.835 524.494 C 52.292 512.995, 46.702 481.733, 45.022 458.435 C 43.383 435.703, 43.764 418.218, 46.467 392 C 46.823 388.544, 46.485 389.228, 45.009 394.946 C 41.217 409.639, 40.723 419.234, 41.463 463.750 C 41.849 486.987, 41.880 506, 41.531 506 C 40.256 506, 38.085 499.133, 36.533 490.188 C 32.633 467.710, 32.337 480.481, 36.132 507.500 C 41.863 548.303, 57.471 598.149, 76.152 635.303 C 78.338 639.650, 79.829 643.498, 79.465 643.853 C 77.769 645.511, 69.437 633.850, 63.517 621.532 C 52.618 598.859, 45.208 582.688, 42.997 576.750 C 41.006 571.402, 39.732 569.923, 38.691 571.750 C 38.456 572.163, 38.832 574.300, 39.527 576.500 C 40.271 578.856, 40.843 579.678, 40.918 578.500 C 41.042 576.556, 42.387 578.883, 45.108 585.750 C 45.599 586.987, 46.403 589.013, 46.895 590.250 C 47.388 591.487, 48.913 594.975, 50.286 598 C 52.462 602.798, 56.504 612.268, 59.036 618.500 C 65.413 634.203, 73.174 647, 76.320 647 C 76.831 647, 82.835 652.400, 89.663 659 C 96.491 665.600, 102.792 671, 103.666 671 C 104.540 671, 109.686 675.252, 115.101 680.450 C 123.001 688.033, 125.692 690.019, 128.723 690.504 C 130.800 690.837, 133.287 691.535, 134.250 692.055 C 135.213 692.575, 136.787 693.380, 137.750 693.844 C 138.713 694.308, 140.625 695.291, 142 696.029 C 143.375 696.767, 147.875 698.314, 152 699.467 C 159.401 701.535, 159.560 701.649, 164.018 708.128 C 171.901 719.585, 184.084 734.204, 193.495 743.500 C 224.072 773.701, 233.502 782.367, 247 792.671 C 253.668 797.762, 271.578 810, 272.359 810 C 272.599 810, 275.848 811.854, 279.578 814.120 C 285.673 817.823, 308.606 829.251, 318.250 833.390 C 333.727 840.034, 335.774 840.862, 342 843 C 343.925 843.661, 346.400 844.556, 347.500 844.988 C 349.989 845.966, 365.448 850.932, 369.500 852.056 C 371.150 852.513, 374.300 853.393, 376.500 854.010 C 392.683 858.553, 407.273 861.202, 431.500 863.997 C 441.594 865.162, 450.435 866.454, 460 868.161 C 474.900 870.821, 501.463 869.300, 532 864.038 C 535.025 863.516, 539.075 862.832, 541 862.518 C 542.925 862.203, 546.862 861.508, 549.750 860.973 C 567.158 857.748, 566.196 857.951, 578 855 C 585.399 853.150, 590.468 851.742, 596 850 C 599.025 849.047, 603.525 847.677, 606 846.954 C 608.475 846.231, 610.950 845.365, 611.500 845.028 C 612.050 844.692, 614.300 843.844, 616.500 843.142 C 618.700 842.441, 621.513 841.448, 622.750 840.934 C 624.843 840.065, 626.463 839.412, 632.250 837.102 C 640.504 833.807, 651.215 828.995, 659 825.082 C 683.088 812.977, 699.847 802.757, 725 784.833 C 746.782 769.312, 779.297 738.888, 798.618 715.950 C 809.630 702.876, 821.145 687.173, 830.847 672 C 847.103 646.575, 865.629 608.883, 872.624 587 C 873.416 584.525, 874.499 581.719, 875.032 580.764 C 875.564 579.809, 876 578.148, 876 577.073 C 876 575.998, 876.398 574.872, 876.885 574.571 C 877.371 574.271, 878.009 572.781, 878.302 571.262 C 878.596 569.743, 879.322 566.813, 879.918 564.750 C 883.588 552.032, 884.722 547.835, 886.063 542 C 886.632 539.525, 887.533 535.700, 888.065 533.500 C 889.763 526.483, 892.450 511.469, 893.972 500.500 C 896.811 480.031, 897.462 468.287, 897.462 437.500 C 897.462 407.002, 896.883 396.339, 894.067 375 C 892.768 365.155, 888.973 344.702, 887.016 337 C 886.526 335.075, 885.605 331.250, 884.968 328.500 C 884.330 325.750, 883.454 322.375, 883.020 321 C 882.587 319.625, 881.664 316.475, 880.969 314 C 879.112 307.381, 872.078 285.898, 870.819 283 C 869.676 280.369, 868.312 277.004, 866.866 273.250 C 862.116 260.910, 857.128 251.267, 855.240 250.773 C 853.958 250.438, 851.498 246.674, 848.120 239.880 C 842.011 227.597, 839.006 222.074, 832.978 212.058 C 830.515 207.964, 827.375 202.688, 826 200.332 C 821.492 192.611, 802.238 165.961, 795.415 158 C 770.069 128.425, 749.489 108.549, 727 91.925 C 709.878 79.268, 704.953 75.887, 694 69.269 C 673.062 56.618, 659.749 49.720, 640 41.290 C 638.075 40.468, 635.515 39.331, 634.311 38.762 C 633.107 38.193, 630.182 37.759, 627.811 37.798 C 623.833 37.864, 620.642 37.126, 615.500 34.953 C 612.908 33.857, 596.802 28.648, 591 27.028 C 588.525 26.337, 585.600 25.407, 584.500 24.961 C 583.400 24.515, 581.375 23.923, 580 23.645 C 578.625 23.367, 575.700 22.628, 573.500 22.003 C 558.839 17.839, 531.909 12.823, 509 9.990 C 504.875 9.480, 497.900 8.582, 493.500 7.995 C 475.366 5.576, 422.621 3.068, 419.500 4.475 M 470 107.869 C 470 108.757, 477.067 110.267, 477.798 109.536 C 478.019 109.314, 477.904 108.653, 477.541 108.067 C 476.755 106.795, 470 106.618, 470 107.869 M 450.805 108.668 C 449.873 108.920, 449.338 109.718, 449.617 110.443 C 449.930 111.259, 448.899 112.188, 446.912 112.881 C 442.119 114.552, 440.681 114.327, 441.290 112 C 441.652 110.615, 441.303 109.969, 440.156 109.898 C 439.245 109.842, 436.097 109.611, 433.160 109.385 C 428.465 109.024, 427.756 109.218, 427.293 110.987 C 427.004 112.094, 426.482 113.005, 426.133 113.010 C 418.180 113.140, 400.975 115.457, 399.154 116.643 C 396.990 118.053, 396.658 118.010, 394.865 116.086 C 393.797 114.939, 391.927 114.032, 390.711 114.070 C 388.593 114.138, 388.584 114.175, 390.500 114.967 C 393.985 116.407, 384.149 120.012, 373.689 121.128 C 362.024 122.373, 338.765 130.001, 317.500 139.555 C 314.200 141.038, 310.600 142.362, 309.500 142.498 C 308.400 142.634, 307.163 142.802, 306.750 142.872 C 306.337 142.943, 306 143.639, 306 144.419 C 306 145.199, 305.212 147.248, 304.250 148.971 C 302.607 151.914, 302.195 152.086, 297.500 151.802 C 292.661 151.510, 292.510 151.582, 292.796 154.056 C 293.098 156.663, 291.426 158.055, 286.250 159.505 C 282.977 160.421, 283.452 158.618, 287.750 153.814 C 291.851 149.231, 291.494 149.352, 282.187 155.696 C 278.715 158.063, 275.024 160, 273.986 160 C 271.881 160, 259.960 170.070, 260.668 171.250 C 260.916 171.662, 262.329 172.014, 263.809 172.032 C 266.382 172.062, 266.415 172.128, 264.574 173.521 C 263.515 174.322, 260.473 175.266, 257.815 175.619 C 255.127 175.975, 250.877 177.578, 248.241 179.228 L 243.500 182.196 247.750 177.810 C 252.925 172.470, 253.470 169.873, 248.795 172.833 C 243.448 176.219, 232.277 187.829, 222.175 200.500 C 216.914 207.100, 209.659 216.081, 206.054 220.458 L 199.500 228.415 199 222.198 L 198.500 215.980 191 225.109 C 149.445 275.688, 125.641 336.821, 116.487 416.474 C 115.847 422.036, 115.698 422.311, 114.314 420.474 C 113.190 418.981, 112.934 416.555, 113.262 410.517 C 113.596 404.385, 113.442 402.980, 112.598 404.458 C 111.994 405.517, 110.596 407.333, 109.492 408.495 C 107.562 410.524, 107.485 411.913, 107.508 444.053 C 107.525 468.344, 107.892 478.939, 108.850 482.757 C 110.099 487.735, 112 489.083, 112 484.990 C 112 483.950, 112.491 480.809, 113.091 478.011 C 114.007 473.740, 114.479 473.017, 116.031 473.510 C 118.830 474.398, 119.988 468.643, 119.994 453.817 C 119.999 442.293, 120.171 441.080, 121.877 440.539 C 123.142 440.138, 123.968 438.604, 124.411 435.832 C 125.217 430.788, 132.033 415.996, 132.715 417.810 C 132.985 418.531, 132.710 421.093, 132.103 423.503 C 131.497 425.914, 131 429.261, 131 430.943 C 131 432.994, 130.506 434, 129.500 434 C 128.330 434, 128 435.347, 128 440.126 C 128 443.496, 127.277 453.733, 126.394 462.876 C 124.902 478.315, 124.948 497.281, 126.480 498.813 C 127.796 500.130, 128.967 496.295, 128.775 491.296 C 128.587 486.428, 129.298 483.965, 130.534 485.201 C 131.816 486.482, 133.122 499.314, 132.907 508.500 C 132.735 515.819, 133.249 521.047, 134.823 528 C 136.221 534.176, 136.978 540.926, 136.987 547.290 C 136.998 555.264, 137.392 557.848, 139.114 561.223 C 142.492 567.844, 145.749 577.064, 152.637 599.500 C 156.182 611.050, 159.901 621.634, 160.901 623.019 C 161.901 624.405, 163.045 626.566, 163.444 627.822 C 164.030 629.670, 164.442 629.878, 165.603 628.915 C 166.726 627.982, 167.413 628.046, 168.769 629.210 C 169.721 630.027, 171.288 630.975, 172.250 631.317 C 173.576 631.787, 174 633.061, 174 636.576 C 174 640.215, 173.688 641.094, 172.551 640.658 C 171.668 640.319, 170.855 640.882, 170.468 642.100 C 169.531 645.052, 175.966 653.004, 187.394 663.019 C 192.717 667.683, 197.452 671.632, 197.916 671.793 C 198.380 671.955, 198.996 670.605, 199.284 668.793 C 199.698 666.194, 198.855 663.708, 195.287 657 C 192.800 652.325, 188.793 645.719, 186.383 642.321 C 183.972 638.922, 182 635.213, 182 634.078 C 182 632.944, 180.024 628.074, 177.608 623.258 C 172.695 613.461, 171.400 608.895, 172.817 606.363 C 173.595 604.972, 174.553 606.277, 177.904 613.298 C 180.174 618.055, 182.961 622.444, 184.098 623.053 C 186.004 624.073, 186.034 624.255, 184.480 625.391 C 182.958 626.504, 183.284 627.270, 187.850 633.302 C 192.738 639.760, 194.973 645.617, 193.474 648.042 C 192.966 648.864, 193.384 649.013, 194.875 648.540 C 196.776 647.936, 197 648.249, 197 651.498 C 197 656.157, 198.539 659, 201.061 659 C 203.956 659, 212 667.389, 212 670.407 C 212 672.321, 212.588 672.937, 214.646 673.184 C 216.802 673.441, 217.525 674.293, 218.550 677.782 C 220.094 683.038, 221.084 684.260, 227.842 689.252 C 232.637 692.795, 234.040 694.784, 236.338 701.293 C 236.828 702.684, 237.366 702.860, 238.735 702.077 C 243.421 699.396, 243.398 699.502, 240.426 694.040 C 238.873 691.187, 236.342 687.955, 234.801 686.858 C 231.371 684.416, 231.164 682.752, 234.391 683.562 C 238.664 684.634, 238.133 682.232, 233.391 679.031 C 230.844 677.312, 228.534 676.133, 228.257 676.410 C 227.360 677.307, 228.953 680.147, 229.993 679.504 C 230.547 679.162, 231 679.359, 231 679.941 C 231 681.733, 229.492 681.126, 226.799 678.250 C 222.069 673.197, 222.435 667.426, 227.218 671.652 L 229.310 673.500 227.498 670.686 C 226.501 669.138, 222.406 665.192, 218.397 661.915 C 209.457 654.611, 206.880 651.112, 206.237 645.409 L 205.740 641 209.481 641 C 213.199 641, 213.219 641.021, 212.580 644.423 C 212.033 647.341, 212.254 647.946, 214.080 648.525 C 215.257 648.899, 217.859 650.654, 219.861 652.426 C 221.862 654.197, 224.595 656.389, 225.934 657.296 C 228.735 659.195, 229.501 662.998, 227.083 663.004 C 226.149 663.006, 226.730 663.762, 228.500 664.848 C 230.150 665.860, 235.479 671.031, 240.341 676.338 C 246.416 682.967, 250.587 686.608, 253.670 687.972 C 256.634 689.283, 261.623 693.529, 268.365 700.478 C 273.979 706.265, 279.171 711, 279.903 711 C 280.712 711, 281.041 711.736, 280.743 712.876 C 280.354 714.363, 281.474 715.337, 286.132 717.563 C 289.899 719.363, 291.572 720.647, 290.785 721.133 C 289.315 722.041, 288.771 721.545, 298 727.706 C 307.767 734.226, 312.563 736.604, 317.660 737.453 C 320.849 737.984, 321.953 738.675, 322.390 740.416 C 322.703 741.665, 324.162 743.890, 325.633 745.360 C 328.115 747.842, 330.308 748.671, 343.357 752.059 C 346.339 752.833, 349.428 754.552, 351.357 756.512 C 353.716 758.907, 355.722 759.865, 359.396 760.353 C 362.292 760.737, 364.801 760.580, 365.536 759.970 C 367.288 758.516, 374 762.584, 374 765.099 C 374 766.722, 374.768 767.004, 379.250 767.029 C 382.137 767.045, 390.800 768.172, 398.500 769.532 C 428.548 774.842, 438.399 776.057, 449.500 775.821 C 458.426 775.632, 461.206 775.930, 464.242 777.404 C 467.761 779.112, 471 779.047, 471 777.269 C 471 776.832, 468.042 775.628, 464.426 774.592 C 460.810 773.557, 458.344 772.405, 458.946 772.033 C 459.548 771.661, 463.519 771.453, 467.770 771.570 C 473.445 771.727, 475.575 772.153, 475.782 773.175 C 476.011 774.308, 477.502 774.412, 483.782 773.733 C 488.027 773.275, 492.948 772.448, 494.717 771.897 C 496.912 771.213, 498.559 771.229, 499.901 771.947 C 502.454 773.313, 512.833 773.303, 516.771 771.930 C 518.459 771.342, 520.110 770.156, 520.440 769.296 C 520.943 767.984, 520.379 767.820, 516.946 768.280 C 513.585 768.731, 512.954 768.562, 513.426 767.333 C 513.742 766.510, 514 765.423, 514 764.918 C 514 763.682, 517.670 763.753, 520.066 765.035 C 521.130 765.605, 522 766.673, 522 767.410 C 522 769.721, 527.892 770.230, 530.540 768.147 L 532.882 766.305 527.795 766.794 C 520.395 767.505, 522.455 765.523, 531.261 763.458 C 535.242 762.524, 542.100 761.639, 546.500 761.490 C 552.437 761.289, 555.918 760.581, 560 758.744 C 569.378 754.522, 584.729 750.761, 591.868 750.935 C 595.724 751.029, 601.067 748.073, 603.358 744.577 C 604.420 742.956, 606.299 741.960, 609.211 741.475 C 611.570 741.082, 615.230 739.884, 617.344 738.812 C 619.458 737.740, 628.414 733.755, 637.246 729.955 C 649.400 724.726, 656.671 720.791, 667.146 713.773 C 675.630 708.089, 680.990 703.857, 680.994 702.839 C 681.002 700.521, 686.100 696.479, 694.080 692.460 C 701.491 688.728, 704 686.026, 704 681.777 C 704 680.250, 704.563 678.956, 705.250 678.901 C 705.938 678.847, 707.482 678.735, 708.683 678.651 C 710.165 678.549, 712.250 676.451, 715.183 672.110 C 717.557 668.596, 720.737 663.893, 722.250 661.659 C 723.763 659.426, 725.006 656.451, 725.014 655.049 C 725.026 653.035, 726.066 651.928, 729.972 649.774 C 735.974 646.464, 740.324 641.086, 749.500 625.630 C 753.350 619.145, 758.525 611.738, 761 609.169 C 763.550 606.523, 766.651 601.792, 768.157 598.250 C 769.618 594.813, 770.649 592, 770.449 592 C 770.248 592, 768.832 594.138, 767.302 596.750 C 763.202 603.749, 751.523 619.185, 741.340 631.066 C 736.421 636.804, 729.540 645.100, 726.049 649.500 L 719.703 657.500 714.851 657.158 C 711.803 656.943, 710 657.222, 710 657.908 C 710 658.509, 711.013 659.015, 712.250 659.033 C 714.140 659.061, 713.456 660.062, 707.985 665.283 C 704.402 668.702, 697.202 674.409, 691.985 677.964 C 686.768 681.519, 679.480 687.256, 675.790 690.714 C 672.099 694.171, 668.190 697, 667.103 697 C 666.016 697, 662.208 698.998, 658.642 701.440 C 649.275 707.853, 644.319 710.161, 640.676 709.808 C 637.652 709.515, 637.873 709.291, 645.312 705.126 C 649.609 702.720, 654.074 699.466, 655.235 697.896 C 656.897 695.648, 657.638 695.285, 658.724 696.186 C 659.816 697.092, 661.185 696.285, 665.301 692.311 C 672.327 685.527, 674.830 684, 678.923 684 C 681.627 684, 682.133 683.733, 681.200 682.800 C 679.327 680.927, 679.774 680, 682.550 680 C 685.663 680, 691.265 677.238, 690.538 676.062 C 689.604 674.550, 696.398 665.679, 699.727 664.065 C 701.914 663.004, 702.962 661.781, 702.977 660.269 C 702.994 658.603, 704.201 657.465, 707.750 655.769 C 711.157 654.142, 713.407 652.086, 715.706 648.500 C 720.998 640.248, 723.197 637.816, 726.681 636.360 C 730.426 634.795, 730.738 633.517, 728.186 630.201 L 726.417 627.901 721.712 631.494 C 719.124 633.470, 716.319 636.417, 715.478 638.043 C 713.558 641.755, 710.496 642.144, 711.395 638.561 C 712.077 635.844, 710.723 634.339, 709.325 636.261 C 708.830 636.942, 707.633 639.245, 706.667 641.378 L 704.910 645.257 707.205 644.675 C 709.118 644.189, 708.878 644.667, 705.765 647.546 C 700.321 652.579, 697.805 651.601, 701.720 645.973 L 703.439 643.500 700.970 645.083 C 699.611 645.953, 695.923 650.413, 692.774 654.993 C 686.035 664.793, 683.461 667.690, 679.800 669.595 C 675.430 671.868, 673.246 671.398, 672.505 668.024 C 671.654 664.148, 672.643 662.693, 675.621 663.441 C 677.571 663.930, 678.251 663.522, 679.232 661.272 C 679.897 659.747, 681.917 656.312, 683.721 653.638 C 685.524 650.964, 687 648.151, 687 647.388 C 687 645.645, 691.983 645.509, 692.044 647.250 C 692.069 647.938, 692.924 646.919, 693.946 644.988 C 694.968 643.056, 699.444 637.431, 703.893 632.488 C 709.445 626.319, 712.626 621.803, 714.037 618.090 C 716.513 611.571, 718.607 608.474, 726.178 600.128 C 729.358 596.623, 732.509 592.234, 733.182 590.375 C 734.110 587.806, 734.836 587.131, 736.202 587.564 C 737.574 588, 738 587.594, 738 585.851 C 738 582.197, 741.184 574.680, 742.103 576.166 C 742.536 576.868, 743.028 577.230, 743.196 576.971 C 743.363 576.712, 745.896 571.764, 748.824 565.976 C 752.911 557.898, 754.276 554.044, 754.698 549.398 C 755.197 543.891, 755.501 543.249, 758.074 542.278 C 761.927 540.824, 764.782 535.745, 765.502 529.066 C 766.708 517.878, 767.236 515.873, 769.771 512.860 C 772.704 509.375, 773.719 501.366, 771.597 498.463 C 770.591 497.088, 770.646 496.112, 771.884 493.381 C 772.727 491.521, 774.110 490, 774.958 490.001 C 776.282 490.001, 776.506 487.707, 776.542 473.751 C 776.564 464.813, 776.782 448.275, 777.024 437 C 777.357 421.555, 777.118 415.021, 776.054 410.500 C 774.484 403.826, 774.553 401.747, 776.475 397.809 C 777.625 395.452, 777.562 394.913, 775.966 393.469 C 774.847 392.456, 773.365 392.067, 772.126 392.460 C 770.290 393.043, 770.157 392.760, 770.639 389.300 C 770.930 387.210, 771.548 384.290, 772.011 382.811 C 772.627 380.844, 772.449 379.788, 771.349 378.874 C 769.378 377.239, 765.001 368.565, 764.995 366.283 C 764.992 365.302, 765.727 362.443, 766.628 359.929 C 768.265 355.362, 768.264 355.355, 765.633 352.724 C 764.185 351.276, 763 349.496, 763 348.768 C 763 348.040, 762.242 346.363, 761.315 345.040 C 759.008 341.745, 758.793 338.242, 760.819 336.953 C 762.211 336.067, 762.254 335.783, 761.069 335.298 C 757.617 333.886, 755.110 329.447, 752.566 320.244 C 751.085 314.885, 748.758 308.587, 747.394 306.250 C 746.031 303.913, 745.403 302, 745.999 302 C 746.595 302, 747.911 303.913, 748.925 306.250 C 750.765 310.493, 750.769 310.496, 751.490 307.761 C 752.008 305.793, 751.618 304.018, 750.104 301.451 C 748.945 299.487, 748.357 298.103, 748.798 298.375 C 749.239 298.648, 749.600 297.311, 749.600 295.404 C 749.600 292.646, 749.141 291.823, 747.357 291.375 C 746.123 291.065, 744.605 291.126, 743.983 291.510 C 743.232 291.975, 743.266 291.547, 744.084 290.237 C 745.398 288.133, 744.755 285, 743.010 285 C 742.431 285, 741.439 286.138, 740.805 287.528 C 739.969 289.363, 739.430 289.706, 738.842 288.778 C 737.548 286.739, 737.872 283.351, 739.489 282.009 C 741.629 280.233, 740.405 279, 736.500 279 C 732.777 279, 731.671 278.022, 732.614 275.565 C 733.123 274.236, 733.505 274.175, 734.761 275.217 C 736.085 276.315, 736.185 276.152, 735.511 273.992 C 733.831 268.611, 733.020 267.092, 729.963 263.611 C 728.220 261.625, 727.345 260, 728.019 260 C 728.954 260, 728.970 259.669, 728.087 258.605 C 727.451 257.838, 727.027 256.826, 727.145 256.355 C 727.419 255.269, 724.022 249.238, 721.835 246.929 C 720.920 245.962, 718.633 242.770, 716.754 239.835 C 712.802 233.663, 705.729 225.029, 695.244 213.577 C 691.177 209.134, 685.571 202.463, 682.787 198.750 C 679.297 194.096, 677.060 192, 675.585 192 C 672.561 192, 669.519 189.615, 665.975 184.464 C 663.376 180.687, 652.547 172, 650.437 172 C 650.067 172, 648.307 170.720, 646.526 169.157 C 642.287 165.435, 614.853 151.228, 599 144.544 C 581.654 137.232, 559.658 130.037, 539 124.920 C 529.375 122.536, 521.288 120.429, 521.029 120.238 C 520.770 120.047, 521.220 119.441, 522.029 118.891 C 523.505 117.887, 533.790 118.312, 537.512 119.531 C 538.862 119.973, 538.453 119.270, 536.241 117.341 C 534.449 115.778, 532.986 113.938, 532.991 113.250 C 533.005 111.363, 525.966 111.664, 524.543 113.611 C 523.464 115.086, 523.221 115.078, 521.655 113.512 C 519.594 111.451, 511.268 110.007, 512.448 111.915 C 512.926 112.690, 512.435 113.335, 511.101 113.684 C 509.945 113.986, 509 114.631, 509 115.117 C 509 116.830, 506.025 115.957, 498.378 112 C 494.126 109.800, 490.041 108, 489.299 108 C 488.557 108, 487.518 109.137, 486.990 110.526 C 485.576 114.245, 483.873 114.454, 474.040 112.117 C 463.544 109.623, 462.003 109.546, 459.479 111.392 C 457.791 112.626, 457.456 112.542, 456.513 110.650 C 455.417 108.452, 453.751 107.874, 450.805 108.668 M 498 110.551 C 498 111.314, 504.594 114, 506.468 114 C 509.375 114, 507.989 112.313, 504.134 111.158 C 499.901 109.890, 498 109.702, 498 110.551 M 291.082 146.410 C 288.665 147.749, 288.665 147.750, 290.771 148.878 C 292.915 150.025, 293.213 149.846, 294.314 146.750 C 295.052 144.677, 294.345 144.603, 291.082 146.410 M 530 237.911 C 530 241.310, 484.427 495.362, 482.512 502.638 C 481.189 507.664, 478.963 514.592, 477.564 518.034 C 468.296 540.843, 450.475 552.141, 423.500 552.309 C 402.184 552.441, 388.507 545.339, 382.801 531.174 C 380.757 526.100, 380.530 523.967, 380.649 511 C 380.739 501.200, 381.466 492.659, 382.891 484.651 C 384.051 478.133, 385 472.171, 385 471.401 C 385 470.219, 377.380 470, 336.250 470.002 L 287.500 470.004 283.151 495.087 C 277.415 528.175, 276.391 539.387, 277.864 552.973 C 280.640 578.568, 289.154 595.731, 306.134 609.965 C 328.706 628.886, 367.628 638.221, 417.500 636.675 C 504.119 633.989, 553.412 599.574, 574.961 526.738 C 579.348 511.909, 579.749 509.767, 604.460 369 C 616.866 298.325, 627.196 239.713, 627.415 238.750 C 627.790 237.102, 624.969 237, 578.906 237 C 550.169 237, 530 237.376, 530 237.911 M 175.239 641.810 C 173.835 642.725, 176.612 645.775, 180.836 647.956 C 183.987 649.583, 184.249 649.012, 182.220 644.946 C 180.501 641.502, 177.667 640.228, 175.239 641.810 M 202.571 673.500 C 203.926 679.132, 205.123 681.500, 208.258 684.750 C 211.874 688.499, 210.514 689.132, 206.327 685.649 C 202.835 682.744, 198.994 680.672, 198.331 681.336 C 196.793 682.873, 215.428 698.505, 226.500 704.965 C 230.060 707.042, 229.661 706.429, 222.879 699.400 C 215.478 691.729, 215.285 691.402, 216.189 688.128 C 216.701 686.273, 216.838 684.023, 216.493 683.128 C 215.925 681.654, 215.772 681.666, 214.883 683.250 C 214.343 684.212, 213.485 685, 212.976 685 C 212.468 685, 209.757 681.737, 206.951 677.750 C 203.063 672.224, 202.022 671.213, 202.571 673.500 M 248.721 731.960 C 248.196 733.965, 246.780 733.874, 240.500 731.430 C 239.333 730.976, 240.282 732.401, 242.781 734.855 C 245.135 737.166, 247.329 740.395, 247.656 742.029 C 248.284 745.168, 250.626 745.974, 252.800 743.800 C 254.101 742.499, 255.629 743.471, 256.179 745.948 C 256.355 746.745, 258.975 749.061, 262 751.095 C 265.025 753.129, 270.200 756.861, 273.500 759.386 C 276.800 761.912, 280.035 763.984, 280.689 763.989 C 281.343 763.995, 283.986 765.824, 286.562 768.054 C 289.268 770.396, 297.720 775.212, 306.575 779.457 C 315.006 783.500, 323.838 788.154, 326.202 789.799 C 328.566 791.445, 332.425 793.071, 334.777 793.412 C 337.130 793.753, 342.842 795.600, 347.471 797.516 C 356.669 801.324, 365 802.267, 365 799.500 C 365 798.383, 363.820 798, 360.383 798 C 356.072 798, 355.797 797.844, 356.218 795.642 C 356.628 793.493, 355.640 792.810, 345.084 787.956 C 328.256 780.217, 292.478 762.369, 285.500 758.231 C 278.521 754.093, 268.654 746.446, 257.868 736.815 C 253.670 733.067, 250.010 730, 249.734 730 C 249.459 730, 249.003 730.882, 248.721 731.960" stroke="none" fill="#232424" fill-rule="evenodd"/></svg>